<svg xmlns="http://www.w3.org/2000/svg" width="4703.13" height="3000" viewBox="0 0 4703.13 3000"><g transform="translate(-176.935 -1852)"><g transform="translate(0 1751)"><path d="M62,1700,812,200h750L812,1700l750,1500H812L97.848,1771.7Z" transform="translate(114.935 -99)" fill="#ddd"/><path d="M689.5,200h750l-375,750H312Z" transform="translate(1039.935 -99)" fill="#00cdf2"/><path d="M1062,200H312L687,950h752.5Z" transform="translate(1039.935 2151)" fill="#00cdf2"/></g><g transform="translate(0 1751)"><path d="M62,1700,812,200h750L812,1700l750,1500H812Z" transform="translate(4942.065 3301) rotate(180)" fill="#ddd"/><g transform="translate(944.685 -851)"><path d="M386.5,200h750V3200h-750Z" transform="translate(1248.875 752)" fill="#00cdf2"/><path d="M274.5,200H1587.011L1775.75,575l-188.739,375H274.5Z" transform="translate(1360.25 1876.997)" fill="#00cdf2"/><path d="M912.487,200l375.64,750.092H161.876V200Z" transform="translate(1473.499 752)" fill="#00cdf2"/><path d="M912.487,950.092,1288.126,200H161.876V950.092Z" transform="translate(1473.499 3001.908)" fill="#00cdf2"/></g></g></g></svg>